<svg width="85" height="131" viewBox="0 0 85 131" fill="none" xmlns="http://www.w3.org/2000/svg">
<g clip-path="url(#clip0_816_40474)">
<path d="M85.0053 0.5H59.3398V89.8959H85.0053V0.5Z" fill="#CB4154"/>
<path d="M25.6654 0.5H0V89.8959H25.6654V0.5Z" fill="#CB4154"/>
<path d="M84.903 89.8779C84.4869 100.785 79.839 111.108 71.9354 118.679C64.0318 126.249 53.4872 130.479 42.516 130.479C31.5447 130.479 21.0002 126.249 13.0965 118.679C5.19293 111.108 0.545055 100.785 0.128906 89.8779H25.7699C26.1757 94.0215 28.1171 97.8664 31.2161 100.664C34.3151 103.461 38.3498 105.011 42.5343 105.011C46.7188 105.011 50.7534 103.461 53.8525 100.664C56.9515 97.8664 58.8929 94.0215 59.2986 89.8779H84.903Z" fill="#65C7D1"/>
</g>
<defs>
<clipPath id="clip0_816_40474">
<rect width="85" height="130" fill="white" transform="translate(0 0.5)"/>
</clipPath>
</defs>
</svg>
