<svg width="193" height="66" viewBox="0 0 193 66" fill="none" xmlns="http://www.w3.org/2000/svg">
<path d="M28.5449 2.61949C25.6335 1.13637 22.3998 0.410742 19.1385 0.508763H0V49.3613H10.2581V33.5271H18.8793C22.1798 33.6233 25.4539 32.9091 28.419 31.4462C30.953 30.1568 33.051 28.1402 34.4479 25.651C35.8723 23.0209 36.5897 20.0617 36.5291 17.0664C36.5912 14.0699 35.8845 11.108 34.4775 8.46688C33.1119 5.9743 31.0488 3.9409 28.5449 2.61949ZM25.0045 21.3252C24.3596 22.5637 23.3509 23.5717 22.116 24.2116C20.5932 24.9564 18.9119 25.3124 17.2202 25.2483H10.2581V8.95168H17.1758C18.8746 8.88771 20.5637 9.23558 22.1012 9.96602C23.3381 10.5872 24.3527 11.5802 25.0045 12.8077C25.6681 14.126 25.9988 15.5887 25.9674 17.0664C25.9937 18.5436 25.6632 20.0051 25.0045 21.3252Z" fill="#65C7D1"/>
<path d="M68.2375 15.18C66.7312 14.1481 65.0566 13.3908 63.29 12.9425C61.3905 12.4501 59.4372 12.1995 57.4758 12.1966C54.8601 12.1465 52.2588 12.597 49.81 13.5242C47.7376 14.3059 45.8865 15.5862 44.4181 17.2534C43.0185 18.9153 42.0581 20.906 41.6258 23.0412L50.9581 23.787C51.3134 22.5681 52.0645 21.5045 53.0911 20.7663C54.3672 19.9013 55.8878 19.4772 57.424 19.5581C58.8614 19.4656 60.2824 19.909 61.4161 20.8036C61.8946 21.2459 62.2692 21.79 62.5127 22.3964C62.7561 23.0028 62.8622 23.6562 62.8234 24.3091V24.4508C62.8429 24.7965 62.7725 25.1414 62.6193 25.4514C62.466 25.7614 62.2351 26.0258 61.9494 26.2184C61.0822 26.7081 60.1241 27.0128 59.1349 27.1134C57.8387 27.3074 56.1278 27.5237 54.017 27.74C52.2675 27.9042 50.5338 28.2085 48.8324 28.6499C47.2816 29.0407 45.8053 29.6858 44.4625 30.5592C43.1925 31.4333 42.1651 32.6193 41.4777 34.005C40.6896 35.5932 40.3077 37.3545 40.3667 39.1289C40.2886 41.2577 40.8375 43.3623 41.9443 45.1777C42.9896 46.7917 44.4837 48.0601 46.2401 48.8249C48.199 49.6735 50.3146 50.0929 52.4468 50.0555C54.0646 50.0785 55.6747 49.8264 57.2092 49.3097C58.5018 48.876 59.6989 48.1947 60.7347 47.3034C61.7002 46.4571 62.4948 45.4315 63.0752 44.2827H63.364V49.3619H72.9185V24.6522C72.9701 22.7037 72.5373 20.7731 71.6594 19.036C70.8442 17.4916 69.6702 16.1687 68.2375 15.18ZM62.8974 36.2649C62.915 37.4889 62.5779 38.6916 61.9272 39.7256C61.2643 40.7574 60.3418 41.5938 59.2534 42.1496C58.032 42.7571 56.6823 43.0565 55.3205 43.0222C53.9613 43.0808 52.6193 42.6992 51.4913 41.9333C51.0022 41.574 50.6104 41.097 50.3516 40.5458C50.0929 39.9947 49.9754 39.387 50.01 38.7784C49.9811 37.9167 50.2421 37.0704 50.7507 36.3768C51.2935 35.6939 52.0029 35.1646 52.8097 34.8404C53.804 34.428 54.8471 34.1473 55.913 34.005L57.7647 33.7291C58.4387 33.6246 59.1201 33.5053 59.8015 33.371C60.4214 33.2527 61.0346 33.1009 61.6383 32.9161C62.0915 32.7906 62.5253 32.6024 62.927 32.3567L62.8974 36.2649Z" fill="#65C7D1"/>
<path d="M142.828 28.1057L136.236 26.7707C134.943 26.5648 133.718 26.0537 132.659 25.279C132.33 25.009 132.065 24.6674 131.886 24.2799C131.706 23.8924 131.616 23.469 131.622 23.0415C131.624 22.4954 131.775 21.9604 132.059 21.4949C132.342 21.0293 132.747 20.651 133.229 20.4012C134.432 19.7116 135.801 19.3708 137.184 19.4167C138.221 19.3902 139.252 19.5886 140.206 19.9984C141 20.348 141.703 20.8791 142.258 21.5498C142.768 22.1728 143.116 22.9134 143.272 23.7053L152.516 23.1384C152.344 21.5525 151.843 20.0207 151.044 18.6431C150.245 17.2654 149.167 16.0728 147.879 15.143C145.238 13.1889 141.618 12.2094 137.021 12.2044C134.243 12.1486 131.479 12.6191 128.874 13.5917C126.753 14.3759 124.891 15.7395 123.497 17.5297C122.21 19.2949 121.542 21.4414 121.601 23.6307C121.563 24.8676 121.772 26.0995 122.218 27.2529C122.663 28.4063 123.335 29.4573 124.193 30.3432C125.916 32.1034 128.558 33.3465 132.118 34.0724L138.421 35.3329C139.676 35.5202 140.873 35.9892 141.924 36.7053C142.282 36.9676 142.573 37.3108 142.775 37.7072C142.977 38.1035 143.084 38.5421 143.087 38.9875C143.083 39.5468 142.93 40.0947 142.645 40.5746C142.36 41.0545 141.952 41.449 141.465 41.7173C140.116 42.4185 138.617 42.7745 137.099 42.7536C135.581 42.7328 134.092 42.3359 132.762 41.598C132.19 41.2159 131.701 40.7196 131.327 40.1397C130.952 39.5599 130.7 38.9088 130.585 38.2268L120.66 38.7489C120.86 40.4106 121.41 42.0101 122.274 43.4404C123.137 44.8708 124.294 46.0989 125.667 47.0426C128.516 49.0614 132.35 50.0732 137.169 50.0782C140.032 50.1417 142.879 49.6348 145.546 48.5865C147.793 47.7097 149.771 46.2509 151.279 44.3576C152.654 42.5364 153.373 40.2978 153.316 38.0105C153.361 36.8191 153.152 35.6318 152.703 34.529C152.253 33.4261 151.573 32.4336 150.709 31.6186C148.99 29.9927 146.363 28.8217 142.828 28.1057Z" fill="#65C7D1"/>
<path d="M193.001 33.6471V30.8502C193.055 28.0713 192.614 25.3051 191.697 22.6833C190.922 20.5019 189.68 18.5185 188.061 16.8732C186.514 15.3339 184.654 14.1507 182.609 13.405C180.457 12.6154 178.182 12.2213 175.892 12.2415C172.626 12.1624 169.402 12.9908 166.574 14.6357C163.935 16.2156 161.802 18.5245 160.427 21.2886C158.921 24.3713 158.174 27.7736 158.249 31.2082C158.161 34.68 158.908 38.1216 160.427 41.2398C161.81 43.9935 163.976 46.2704 166.648 47.7808C169.604 49.378 172.923 50.1699 176.277 50.078C178.99 50.131 181.688 49.6574 184.224 48.6833C186.385 47.852 188.318 46.5119 189.86 44.7751C191.322 43.0941 192.323 41.0579 192.764 38.868L183.431 38.249C183.11 39.1341 182.59 39.9328 181.913 40.5834C181.233 41.2366 180.415 41.7262 179.521 42.0155C178.527 42.345 177.486 42.5063 176.44 42.4928C174.912 42.5333 173.401 42.1625 172.062 41.4188C170.832 40.7079 169.837 39.6466 169.203 38.3683C168.499 36.9057 168.154 35.2944 168.196 33.6695L193.001 33.6471ZM171.996 20.8933C173.229 20.171 174.636 19.8046 176.062 19.8342C177.415 19.805 178.751 20.1369 179.936 20.7963C181.031 21.4281 181.935 22.3487 182.55 23.459C183.202 24.6522 183.529 25.998 183.498 27.3597H168.263C168.298 26.0951 168.633 24.8574 169.24 23.7498C169.891 22.5686 170.842 21.5828 171.996 20.8933Z" fill="#65C7D1"/>
<path d="M114.187 13.7705H104.092V49.3546H114.187V13.7705Z" fill="#CB4154"/>
<path d="M90.849 13.7705H80.7539V49.3546H90.849V13.7705Z" fill="#CB4154"/>
<path d="M114.142 49.3472C113.961 53.6755 112.126 57.7658 109.02 60.7639C105.915 63.7619 101.779 65.4358 97.4772 65.4358C93.1752 65.4358 89.0396 63.7619 85.9342 60.7639C82.8288 57.7658 80.9938 53.6755 80.8125 49.3472H90.8928C91.0485 50.9991 91.8103 52.5332 93.0293 53.6497C94.2482 54.7662 95.8368 55.3849 97.4846 55.3849C99.1325 55.3849 100.721 54.7662 101.94 53.6497C103.159 52.5332 103.921 50.9991 104.076 49.3472H114.142Z" fill="#65C7D1"/>
</svg>
